ffmpeg started on 2016-12-12 at 05:04:08
Report written to "Output/theora/results/ffmpeg/Tsintel4500k.log"
Command line:
Tools/ffmpeg/ffmpeg -i Output/theora/encoded/sintel4500k.mkv -c:v rawvideo -pix_fmt yuv420p Output/theora/transcoded/sintel4500k.yuv
ffmpeg version N-82227-gdb23fde Copyright (c) 2000-2016 the FFmpeg developers
  built with gcc 5.4.0 (Ubuntu 5.4.0-6ubuntu1~16.04.2) 20160609
  configuration: --prefix=/home/jaroslav/ffmpeg_build --pkg-config-flags=--static --extra-cflags=-I/home/jaroslav/ffmpeg_build/include --extra-ldflags=-L/home/jaroslav/ffmpeg_build/lib --bindir=/home/jaroslav/bin --enable-gpl --enable-libass --enable-libfdk-aac --enable-libfreetype --enable-libmp3lame --enable-libopus --enable-libtheora --enable-libvorbis --enable-libvpx --enable-libx264 --enable-libx265 --enable-nvenc --enable-libmfx --enable-libxvid --enable-libgsm --enable-libopencore-amrnb --enable-version3 --enable-nonfree
  libavutil      55. 35.100 / 55. 35.100
  libavcodec     57. 66.101 / 57. 66.101
  libavformat    57. 57.100 / 57. 57.100
  libavdevice    57.  2.100 / 57.  2.100
  libavfilter     6. 66.100 /  6. 66.100
  libswscale      4.  3.100 /  4.  3.100
  libswresample   2.  4.100 /  2.  4.100
  libpostproc    54.  2.100 / 54.  2.100
Input #0, matroska,webm, from 'Output/theora/encoded/sintel4500k.mkv':
  Metadata:
    ENCODER         : Lavf57.57.100
  Duration: 00:00:20.83, start: 0.000000, bitrate: 4624 kb/s
    Stream #0:0: Video: theora, yuv420p(progressive), 4096x1744 [SAR 1:1 DAR 256:109], 24 fps, 24 tbr, 1k tbn, 24 tbc (default)
    Metadata:
      ENCODER         : Lavc57.66.101 libtheora
      DURATION        : 00:00:20.834000000
Output #0, rawvideo, to 'Output/theora/transcoded/sintel4500k.yuv':
  Metadata:
    encoder         : Lavf57.57.100
    Stream #0:0: Video: rawvideo (I420 / 0x30323449), yuv420p, 4096x1744 [SAR 1:1 DAR 256:109], q=2-31, 200 kb/s, 24 fps, 24 tbn, 24 tbc (default)
    Metadata:
      DURATION        : 00:00:20.834000000
      encoder         : Lavc57.66.101 rawvideo
Stream mapping:
  Stream #0:0 -> #0:0 (theora (native) -> rawvideo (native))
Press [q] to stop, [?] for help
frame=   21 fps=0.0 q=-0.0 size=  219744kB time=00:00:00.87 bitrate=2057306.1kbits/s speed=1.68x    frame=   42 fps= 40 q=-0.0 size=  439488kB time=00:00:01.75 bitrate=2057306.1kbits/s speed=1.68x    frame=   63 fps= 40 q=-0.0 size=  659232kB time=00:00:02.62 bitrate=2057306.1kbits/s speed=1.68x    frame=   84 fps= 40 q=-0.0 size=  878976kB time=00:00:03.50 bitrate=2057306.1kbits/s speed=1.69x    frame=  105 fps= 40 q=-0.0 size= 1098720kB time=00:00:04.37 bitrate=2057306.1kbits/s speed=1.69x    frame=  127 fps= 41 q=-0.0 size= 1328928kB time=00:00:05.29 bitrate=2057306.0kbits/s dup=6 drop=0 speed= 1.7x    frame=  149 fps= 41 q=-0.0 size= 1559136kB time=00:00:06.20 bitrate=2057306.2kbits/s dup=18 drop=0 speed= 1.7x    frame=  170 fps= 41 q=-0.0 size= 1778880kB time=00:00:07.08 bitrate=2057306.2kbits/s dup=25 drop=0 speed=1.69x    frame=  192 fps= 41 q=-0.0 size= 2009088kB time=00:00:08.00 bitrate=2057306.1kbits/s dup=31 drop=0 speed=1.69x    frame=  215 fps= 41 q=-0.0 size= 2249760kB time=00:00:08.95 bitrate=2057306.2kbits/s dup=40 drop=0 speed= 1.7x    frame=  237 fps= 41 q=-0.0 size= 2479968kB time=00:00:09.87 bitrate=2057306.1kbits/s dup=48 drop=0 speed= 1.7x    frame=  257 fps= 41 q=-0.0 size= 2689248kB time=00:00:10.70 bitrate=2057306.2kbits/s dup=58 drop=0 speed=1.69x    frame=  278 fps= 41 q=-0.0 size= 2908992kB time=00:00:11.58 bitrate=2057306.2kbits/s dup=65 drop=0 speed=1.69x    frame=  299 fps= 40 q=-0.0 size= 3128736kB time=00:00:12.45 bitrate=2057306.2kbits/s dup=68 drop=0 speed=1.67x    frame=  316 fps= 40 q=-0.0 size= 3306624kB time=00:00:13.16 bitrate=2057306.1kbits/s dup=68 drop=0 speed=1.66x    frame=  335 fps= 40 q=-0.0 size= 3505440kB time=00:00:13.95 bitrate=2057306.2kbits/s dup=68 drop=0 speed=1.65x    frame=  349 fps= 39 q=-0.0 size= 3651936kB time=00:00:14.54 bitrate=2057306.1kbits/s dup=68 drop=0 speed=1.62x    frame=  367 fps= 39 q=-0.0 size= 3840288kB time=00:00:15.29 bitrate=2057306.1kbits/s dup=68 drop=0 speed=1.61x    frame=  383 fps= 38 q=-0.0 size= 4007712kB time=00:00:15.95 bitrate=2057306.2kbits/s dup=68 drop=0 speed= 1.6x    frame=  395 fps= 37 q=-0.0 size= 4133280kB time=00:00:16.45 bitrate=2057306.2kbits/s dup=68 drop=0 speed=1.56x    frame=  400 fps= 36 q=-0.0 size= 4185600kB time=00:00:16.66 bitrate=2057306.1kbits/s dup=68 drop=0 speed=1.51x    frame=  414 fps= 36 q=-0.0 size= 4332096kB time=00:00:17.25 bitrate=2057306.1kbits/s dup=68 drop=0 speed=1.48x    frame=  416 fps= 34 q=-0.0 size= 4353024kB time=00:00:17.33 bitrate=2057306.2kbits/s dup=68 drop=0 speed=1.42x    frame=  425 fps= 33 q=-0.0 size= 4447200kB time=00:00:17.70 bitrate=2057306.2kbits/s dup=68 drop=0 speed=1.38x    frame=  439 fps= 33 q=-0.0 size= 4593696kB time=00:00:18.29 bitrate=2057306.1kbits/s dup=68 drop=0 speed=1.37x    frame=  457 fps= 33 q=-0.0 size= 4782048kB time=00:00:19.04 bitrate=2057306.1kbits/s dup=68 drop=0 speed=1.38x    frame=  467 fps= 33 q=-0.0 size= 4886688kB time=00:00:19.45 bitrate=2057306.1kbits/s dup=68 drop=0 speed=1.36x    frame=  481 fps= 32 q=-0.0 size= 5033184kB time=00:00:20.04 bitrate=2057306.1kbits/s dup=68 drop=0 speed=1.35x    frame=  495 fps= 32 q=-0.0 size= 5179680kB time=00:00:20.62 bitrate=2057306.1kbits/s dup=68 drop=0 speed=1.34x    frame=  500 fps= 32 q=-0.0 Lsize= 5232000kB time=00:00:20.83 bitrate=2057306.1kbits/s dup=68 drop=0 speed=1.34x    
video:5232000kB audio:0kB subtitle:0kB other streams:0kB global headers:0kB muxing overhead: 0.000000%
